<svg width="40" height="40" viewBox="0 0 40 40" fill="none" xmlns="http://www.w3.org/2000/svg">
<path d="M31.3501 10.4166H33.6168C33.3001 9.96663 32.9668 9.54997 32.6168 9.1333L31.3501 10.4166Z" fill="#3DB767"/>
<path d="M30.8666 7.3667C30.4499 7.0167 30.0333 6.68337 29.5833 6.3667V8.63337L30.8666 7.3667Z" fill="#3DB767"/>
<path d="M32.6334 9.13324L37.55 4.21657C38.0334 3.73324 38.0334 2.93324 37.55 2.4499C37.0667 1.96657 36.2667 1.96657 35.7834 2.4499L30.8667 7.36657C31.5 7.91657 32.0834 8.51657 32.6334 9.13324Z" fill="#3DB767"/>
<path d="M29.5834 5C29.5834 4.31667 29.0168 3.75 28.3334 3.75C27.6668 3.75 27.1334 4.28333 27.1001 4.93333C27.9668 5.35 28.8001 5.81667 29.5834 6.36667V5Z" fill="#3DB767"/>
<path d="M36.25 11.6665C36.25 10.9832 35.6834 10.4165 35 10.4165H33.6167C34.1667 11.1998 34.65 12.0332 35.05 12.8998C35.7167 12.8665 36.25 12.3332 36.25 11.6665Z" fill="#3DB767"/>
<path d="M21.25 24.5833H21.75C22.4 24.5833 22.9167 24 22.9167 23.2833C22.9167 22.3833 22.6667 22.25 22.1 22.05L21.25 21.75V24.5833Z" fill="#3DB767"/>
<path d="M35.0666 12.9002C35.0499 12.9002 35.0333 12.9168 34.9999 12.9168H28.3333C28.1666 12.9168 28.0166 12.8835 27.8499 12.8168C27.5499 12.6835 27.2999 12.4502 27.1666 12.1335C27.1166 11.9835 27.0833 11.8335 27.0833 11.6668V5.00016C27.0833 4.9835 27.0999 4.96683 27.0999 4.9335C24.9333 3.91683 22.5333 3.3335 19.9999 3.3335C10.7999 3.3335 3.33325 10.8002 3.33325 20.0002C3.33325 29.2002 10.7999 36.6668 19.9999 36.6668C29.1999 36.6668 36.6666 29.2002 36.6666 20.0002C36.6666 17.4668 36.0833 15.0668 35.0666 12.9002ZM22.9166 19.7002C23.9833 20.0668 25.4166 20.8502 25.4166 23.3002C25.4166 25.3835 23.7666 27.1002 21.7499 27.1002H21.2499V27.5168C21.2499 28.2002 20.6833 28.7668 19.9999 28.7668C19.3166 28.7668 18.7499 28.2002 18.7499 27.5168V27.1002H18.6166C16.3999 27.1002 14.5833 25.2335 14.5833 22.9335C14.5833 22.2335 15.1499 21.6668 15.8333 21.6668C16.5166 21.6668 17.0833 22.2335 17.0833 22.9168C17.0833 23.8335 17.7666 24.5835 18.6166 24.5835H18.7499V20.8835L17.0833 20.3002C16.0166 19.9335 14.5833 19.1502 14.5833 16.7002C14.5833 14.6168 16.2333 12.9002 18.2499 12.9002H18.7499V12.5002C18.7499 11.8168 19.3166 11.2502 19.9999 11.2502C20.6833 11.2502 21.2499 11.8168 21.2499 12.5002V12.9168H21.3833C23.5999 12.9168 25.4166 14.7835 25.4166 17.0835C25.4166 17.7668 24.8499 18.3335 24.1666 18.3335C23.4833 18.3335 22.9166 17.7668 22.9166 17.0835C22.9166 16.1668 22.2333 15.4168 21.3833 15.4168H21.2499V19.1168L22.9166 19.7002Z" fill="#3DB767"/>
<path d="M17.0833 16.7165C17.0833 17.6165 17.3333 17.7498 17.8999 17.9498L18.7499 18.2498V15.4165H18.2499C17.6166 15.4165 17.0833 15.9998 17.0833 16.7165Z" fill="#3DB767"/>
</svg>
