<svg width="48" height="48" viewBox="0 0 48 48" fill="none" xmlns="http://www.w3.org/2000/svg">
<rect x="0.5" y="0.5" width="47" height="47" rx="4.5" stroke="#0F50A6"/>
<path d="M17.3999 14.0996H30.5999C31.6999 14.0996 32.5999 14.9996 32.5999 16.0996V18.2996C32.5999 19.0996 32.0999 20.0996 31.5999 20.5996L27.2999 24.3996C26.6999 24.8996 26.2999 25.8996 26.2999 26.6996V30.9996C26.2999 31.5996 25.8999 32.3996 25.3999 32.6996L23.9999 33.5996C22.6999 34.3996 20.8999 33.4996 20.8999 31.8996V26.5996C20.8999 25.8996 20.4999 24.9996 20.0999 24.4996L16.2999 20.4996C15.7999 19.9996 15.3999 19.0996 15.3999 18.4996V16.1996C15.3999 14.9996 16.2999 14.0996 17.3999 14.0996Z" stroke="#0F50A6" strokeWidth="1.5" strokeMiterlimit="10" strokeLinecap="round" strokeLinejoin="round"/>
<path d="M22.93 14.0996L18 21.9996" stroke="#0F50A6" strokeWidth="1.5" strokeMiterlimit="10" strokeLinecap="round" strokeLinejoin="round"/>
</svg>
