<svg width="25" height="24" viewBox="0 0 25 24" fill="none" xmlns="http://www.w3.org/2000/svg">
<path d="M0.5 3C0.5 2.20435 0.816071 1.44129 1.37868 0.87868C1.94129 0.316071 2.70435 0 3.5 0L21.5 0C22.2956 0 23.0587 0.316071 23.6213 0.87868C24.1839 1.44129 24.5 2.20435 24.5 3V21C24.5 21.7956 24.1839 22.5587 23.6213 23.1213C23.0587 23.6839 22.2956 24 21.5 24H3.5C2.70435 24 1.94129 23.6839 1.37868 23.1213C0.816071 22.5587 0.5 21.7956 0.5 21V3ZM23 6H17V10.5H23V6ZM23 12H17V16.5H23V12ZM23 18H17V22.5H21.5C21.8978 22.5 22.2794 22.342 22.5607 22.0607C22.842 21.7794 23 21.3978 23 21V18ZM15.5 22.5V18H9.5V22.5H15.5ZM8 22.5V18H2V21C2 21.3978 2.15804 21.7794 2.43934 22.0607C2.72064 22.342 3.10218 22.5 3.5 22.5H8ZM2 16.5H8V12H2V16.5ZM2 10.5H8V6H2V10.5ZM9.5 6V10.5H15.5V6H9.5ZM15.5 12H9.5V16.5H15.5V12Z" fill="#004094"/>
</svg>
